<svg id="Layer_1" data-name="Layer 1" xmlns="http://www.w3.org/2000/svg" viewBox="0 0 235.01 236.57"><defs><style>.cls-1{fill:#ff65b3;}.cls-2{fill:#ffbdde;}.cls-3{fill:#ff349b;}</style></defs><path class="cls-1" d="M267,529.93v50.89L307.48,600h0v-50.9Z" transform="translate(-189.94 -388.42)"/><path class="cls-2" d="M348,580.82,307.44,600v-50.9L348,529.93Z" transform="translate(-189.94 -388.42)"/><path class="cls-2" d="M267,529.93,226.44,600,267,580.82Z" transform="translate(-189.94 -388.42)"/><path class="cls-3" d="M267,625l40.52-25L267,580.82Z" transform="translate(-189.94 -388.42)"/><path class="cls-1" d="M226.44,600,267,625V580.82Z" transform="translate(-189.94 -388.42)"/><path class="cls-1" d="M348,529.93v50.89L388.51,600Z" transform="translate(-189.94 -388.42)"/><path class="cls-3" d="M348,625l40.51-25L348,580.82Z" transform="translate(-189.94 -388.42)"/><path class="cls-1" d="M307.48,600,348,625V580.82Z" transform="translate(-189.94 -388.42)"/><path class="cls-3" d="M307.48,505l-40.52,25,40.52,19.2Z" transform="translate(-189.94 -388.42)"/><path class="cls-1" d="M348,529.93l-40.51-25v44.17Z" transform="translate(-189.94 -388.42)"/><path class="cls-1" d="M222.34,460.1v40.7l32.41,15.36Z" transform="translate(-189.94 -388.42)"/><path class="cls-2" d="M222.34,460.1l-32.4,56.06,32.4-15.36Z" transform="translate(-189.94 -388.42)"/><path class="cls-3" d="M222.34,536.13l32.41-20L222.34,500.8Z" transform="translate(-189.94 -388.42)"/><path class="cls-1" d="M189.94,516.16l32.4,20V500.8Z" transform="translate(-189.94 -388.42)"/><path class="cls-1" d="M222.34,542.57v27.65l32.43-47.61Z" transform="translate(-189.94 -388.42)"/><path class="cls-2" d="M222.34,570.22V542.57l-32.4-20Z" transform="translate(-189.94 -388.42)"/><path class="cls-1" d="M392.53,460.1v40.7l32.4,15.36Z" transform="translate(-189.94 -388.42)"/><path class="cls-2" d="M392.53,460.1l-32.41,56.06,32.41-15.36Z" transform="translate(-189.94 -388.42)"/><path class="cls-3" d="M392.53,536.13l32.4-20-32.4-15.36Z" transform="translate(-189.94 -388.42)"/><path class="cls-1" d="M360.12,516.16l32.41,20V500.8Z" transform="translate(-189.94 -388.42)"/><path class="cls-1" d="M392.53,542.57v27.65L425,522.61Z" transform="translate(-189.94 -388.42)"/><path class="cls-2" d="M392.53,570.22V542.57l-32.41-20Z" transform="translate(-189.94 -388.42)"/><path class="cls-1" d="M266.92,388.42v40.71l32.4,15.35Z" transform="translate(-189.94 -388.42)"/><path class="cls-2" d="M266.92,388.42l-32.41,56.06,32.41-15.35Z" transform="translate(-189.94 -388.42)"/><path class="cls-3" d="M266.92,464.45l32.4-20-32.4-15.35Z" transform="translate(-189.94 -388.42)"/><path class="cls-1" d="M234.51,444.48l32.41,20V429.13Z" transform="translate(-189.94 -388.42)"/><path class="cls-1" d="M266.92,470.89v27.65l32.42-47.61Z" transform="translate(-189.94 -388.42)"/><path class="cls-2" d="M266.92,498.54V470.89l-32.41-20Z" transform="translate(-189.94 -388.42)"/><path class="cls-1" d="M348,388.42v40.71l32.41,15.35Z" transform="translate(-189.94 -388.42)"/><path class="cls-2" d="M348,388.42l-32.4,56.06L348,429.13Z" transform="translate(-189.94 -388.42)"/><path class="cls-3" d="M348,464.45l32.41-20L348,429.13Z" transform="translate(-189.94 -388.42)"/><path class="cls-1" d="M315.55,444.48l32.4,20V429.13Z" transform="translate(-189.94 -388.42)"/><path class="cls-1" d="M348,470.89v27.65l32.43-47.61Z" transform="translate(-189.94 -388.42)"/><path class="cls-2" d="M348,498.54V470.89l-32.4-20Z" transform="translate(-189.94 -388.42)"/><path class="cls-1" d="M267,529.93v50.89L307.48,600h0v-50.9Z" transform="translate(-189.94 -388.42)"/><path class="cls-2" d="M348,580.82,307.44,600v-50.9L348,529.93Z" transform="translate(-189.94 -388.42)"/><path class="cls-2" d="M267,529.93,226.44,600,267,580.82Z" transform="translate(-189.94 -388.42)"/><path class="cls-3" d="M267,625l40.52-25L267,580.82Z" transform="translate(-189.94 -388.42)"/><path class="cls-1" d="M226.44,600,267,625V580.82Z" transform="translate(-189.94 -388.42)"/><path class="cls-1" d="M348,529.93v50.89L388.51,600Z" transform="translate(-189.94 -388.42)"/><path class="cls-3" d="M348,625l40.51-25L348,580.82Z" transform="translate(-189.94 -388.42)"/><path class="cls-1" d="M307.48,600,348,625V580.82Z" transform="translate(-189.94 -388.42)"/><path class="cls-3" d="M307.48,505l-40.52,25,40.52,19.2Z" transform="translate(-189.94 -388.42)"/><path class="cls-1" d="M348,529.93l-40.51-25v44.17Z" transform="translate(-189.94 -388.42)"/><path class="cls-1" d="M222.34,460.1v40.7l32.41,15.36Z" transform="translate(-189.94 -388.42)"/><path class="cls-2" d="M222.34,460.1l-32.4,56.06,32.4-15.36Z" transform="translate(-189.94 -388.42)"/><path class="cls-3" d="M222.34,536.13l32.41-20L222.34,500.8Z" transform="translate(-189.94 -388.42)"/><path class="cls-1" d="M189.94,516.16l32.4,20V500.8Z" transform="translate(-189.94 -388.42)"/><path class="cls-1" d="M222.34,542.57v27.65l32.43-47.61Z" transform="translate(-189.94 -388.42)"/><path class="cls-2" d="M222.34,570.22V542.57l-32.4-20Z" transform="translate(-189.94 -388.42)"/><path class="cls-1" d="M392.53,460.1v40.7l32.4,15.36Z" transform="translate(-189.94 -388.42)"/><path class="cls-2" d="M392.53,460.1l-32.41,56.06,32.41-15.36Z" transform="translate(-189.94 -388.42)"/><path class="cls-3" d="M392.53,536.13l32.4-20-32.4-15.36Z" transform="translate(-189.94 -388.42)"/><path class="cls-1" d="M360.12,516.16l32.41,20V500.8Z" transform="translate(-189.94 -388.42)"/><path class="cls-1" d="M392.53,542.57v27.65L425,522.61Z" transform="translate(-189.94 -388.42)"/><path class="cls-2" d="M392.53,570.22V542.57l-32.41-20Z" transform="translate(-189.94 -388.42)"/><path class="cls-1" d="M266.92,388.42v40.71l32.4,15.35Z" transform="translate(-189.94 -388.42)"/><path class="cls-2" d="M266.92,388.42l-32.41,56.06,32.41-15.35Z" transform="translate(-189.94 -388.42)"/><path class="cls-3" d="M266.92,464.45l32.4-20-32.4-15.35Z" transform="translate(-189.94 -388.42)"/><path class="cls-1" d="M234.51,444.48l32.41,20V429.13Z" transform="translate(-189.94 -388.42)"/><path class="cls-1" d="M266.92,470.89v27.65l32.42-47.61Z" transform="translate(-189.94 -388.42)"/><path class="cls-2" d="M266.92,498.54V470.89l-32.41-20Z" transform="translate(-189.94 -388.42)"/><path class="cls-1" d="M348,388.42v40.71l32.41,15.35Z" transform="translate(-189.94 -388.42)"/><path class="cls-2" d="M348,388.42l-32.4,56.06L348,429.13Z" transform="translate(-189.94 -388.42)"/><path class="cls-3" d="M348,464.45l32.41-20L348,429.13Z" transform="translate(-189.94 -388.42)"/><path class="cls-1" d="M315.55,444.48l32.4,20V429.13Z" transform="translate(-189.94 -388.42)"/><path class="cls-1" d="M348,470.89v27.65l32.43-47.61Z" transform="translate(-189.94 -388.42)"/><path class="cls-2" d="M348,498.54V470.89l-32.4-20Z" transform="translate(-189.94 -388.42)"/></svg>