<svg id="Layer_1" data-name="Layer 1" xmlns="http://www.w3.org/2000/svg" viewBox="0 0 1917.25 299.16"><defs><style>.cls-1{isolation:isolate;}.cls-2{fill:#ff66b2;}.cls-3{fill:#ff66b1;}.cls-4{fill:#ff65b3;}.cls-5{fill:#ffbdde;}.cls-6{fill:#ff349b;}</style></defs><g class="cls-1"><path class="cls-2" d="M11.5,687.58a11.32,11.32,0,0,1-8.4-3.1,11.32,11.32,0,0,1-3.1-8.4V537q.3-23,11.06-41.41a78.73,78.73,0,0,1,29.17-29q18.42-10.62,41.41-10.62,23.58,0,42.15,10.76A79.36,79.36,0,0,1,153.12,496q10.75,18.57,10.75,42.15,0,23.28-10.46,41.85A78.52,78.52,0,0,1,125,609.33q-18,10.75-40.67,10.75a76.05,76.05,0,0,1-35.81-8.4A71,71,0,0,1,22.7,589.43v86.65a11.32,11.32,0,0,1-3.1,8.4A10.92,10.92,0,0,1,11.5,687.58Zm70.14-88.13a59.39,59.39,0,0,0,30.66-8,57.32,57.32,0,0,0,21.36-22,63.29,63.29,0,0,0,7.82-31.39q0-17.68-7.82-31.54a58.34,58.34,0,0,0-52-30.06,57.88,57.88,0,0,0-51.57,30.06q-7.68,13.86-7.67,31.54a64.17,64.17,0,0,0,7.67,31.39,56.2,56.2,0,0,0,21.22,22A58.75,58.75,0,0,0,81.64,599.45Z" transform="translate(0 -388.42)"/><path class="cls-2" d="M504,618.61a11.59,11.59,0,0,1-6.78-2.06,10.89,10.89,0,0,1-4.12-5.31l-46-137.94c-1.18-4.9-1.08-8.79.29-11.64s4.13-4.27,8.26-4.27a11.59,11.59,0,0,1,6.78,2.06,12.45,12.45,0,0,1,4.42,6.49l41,125.26h-6.48l38-125a13.74,13.74,0,0,1,4-6.34,10.45,10.45,0,0,1,7.22-2.5,10.84,10.84,0,0,1,7.22,2.36,12.8,12.8,0,0,1,4,6.48l36.25,122h-5l40.09-122.31q2.94-8.55,10.9-8.55,6.48,0,8.84,4.86t0,11.05l-46,137.94a11.2,11.2,0,0,1-4,5.31,10.93,10.93,0,0,1-6.64,2.06,12.23,12.23,0,0,1-6.92-2.06,9.16,9.16,0,0,1-4-5.31L548.2,488h3.54L514.6,611.24a10,10,0,0,1-4.12,5.45A11.66,11.66,0,0,1,504,618.61Z" transform="translate(0 -388.42)"/><path class="cls-2" d="M675.23,483a10.26,10.26,0,0,1-7.37-2.8,9.17,9.17,0,0,1-3-6.93,9.55,9.55,0,0,1,3-7.22,10.3,10.3,0,0,1,7.37-2.8h75.16a10.33,10.33,0,0,1,7.37,2.8,9.54,9.54,0,0,1,2.94,7.22,9.17,9.17,0,0,1-2.94,6.93,10.29,10.29,0,0,1-7.37,2.8Zm73.39,135.58a52.34,52.34,0,0,1-47.16-27.56q-7.07-12.82-7.07-29.32V417.6a11.47,11.47,0,0,1,3.09-8.25,10.71,10.71,0,0,1,8.11-3.25,11.1,11.1,0,0,1,11.49,11.5V561.73q0,15,8.84,24.61t22.7,9.58h8a9.88,9.88,0,0,1,7.66,3.24,11.81,11.81,0,0,1,3,8.25,10.24,10.24,0,0,1-3.54,8.1,12.92,12.92,0,0,1-8.84,3.1Z" transform="translate(0 -388.42)"/><path class="cls-2" d="M815.52,552.88a11,11,0,0,1-8.4-3.24,11.47,11.47,0,0,1-3.09-8.25V399.91a10.67,10.67,0,0,1,11.49-11.49,11,11,0,0,1,8.11,3.09,11.38,11.38,0,0,1,3.09,8.4V541.39a11.47,11.47,0,0,1-3.09,8.25A10.68,10.68,0,0,1,815.52,552.88Zm0,65.73a11.32,11.32,0,0,1-8.4-3.1,11,11,0,0,1-3.09-8.1V468.88a10.67,10.67,0,0,1,11.49-11.49,11,11,0,0,1,8.11,3.09,11.38,11.38,0,0,1,3.09,8.4V607.41a10.62,10.62,0,0,1-11.2,11.2Zm126.74,0a11.18,11.18,0,0,1-8.26-3.24,10.83,10.83,0,0,1-3.24-8V530.78q0-18.27-6.92-30.07A44.29,44.29,0,0,0,905,483a64.12,64.12,0,0,0-53.05-.29,46.47,46.47,0,0,0-18.42,15.32,37.73,37.73,0,0,0-6.78,22.11H810.51a63.54,63.54,0,0,1,10-33.16,67.2,67.2,0,0,1,25.05-23,72.28,72.28,0,0,1,34.78-8.4q20.92,0,37.43,8.69a63.89,63.89,0,0,1,26.09,25.5q9.57,16.8,9.58,41v76.63a11.08,11.08,0,0,1-11.2,11.2Z" transform="translate(0 -388.42)"/><path class="cls-2" d="M1076.65,620.08q-23.87,0-42.29-10.46a75.25,75.25,0,0,1-28.89-29Q995,562,995,538.15q0-24.17,9.87-42.59a74.53,74.53,0,0,1,27.27-29q17.38-10.62,40.08-10.62,22.39,0,39,10.17a68.76,68.76,0,0,1,25.79,28.15q9.14,18,9.14,41a9.88,9.88,0,0,1-3,7.51,10.66,10.66,0,0,1-7.66,2.8H1010.34V526.65H1138l-12.68,9.14q.3-17.09-6.19-30.65a50.5,50.5,0,0,0-18.42-21.23q-11.94-7.65-28.44-7.66-16.8,0-29.47,8a53.09,53.09,0,0,0-19.6,22q-6.93,14-6.93,32T1024,570a57.68,57.68,0,0,0,21.37,21.81q13.56,8,31.24,8a65.6,65.6,0,0,0,21.37-3.69q10.76-3.67,17.24-9.28a12,12,0,0,1,7.37-2.8,10.33,10.33,0,0,1,7.07,2.21q3.83,3.54,4,7.66a8.47,8.47,0,0,1-3.39,7.07q-9.72,8.26-24.75,13.71A84.56,84.56,0,0,1,1076.65,620.08Z" transform="translate(0 -388.42)"/><path class="cls-2" d="M1195.72,618.61c-3.53,0-6.29-1-8.25-3s-3-4.71-3-8.25V468.59q0-5.31,3-8.25c2-2,4.72-2.95,8.25-2.95s6.29,1,8.26,2.95,2.94,4.71,2.94,8.25V607.41q0,5.31-2.94,8.25T1195.72,618.61ZM1194,519.28a68.77,68.77,0,0,1,9.57-32.71,64.43,64.43,0,0,1,22.7-22.7,60.1,60.1,0,0,1,31.09-8.25q13.56,0,20.93,3.83t5.6,11.2c-.79,3-2.11,4.92-4,5.9a12.47,12.47,0,0,1-6.78,1.18q-4-.3-9-.59-16.5-1.49-29.32,3.39a44.39,44.39,0,0,0-20.34,14.88q-7.51,10-7.52,23.87Z" transform="translate(0 -388.42)"/></g><g class="cls-1"><path class="cls-3" d="M1380.84,620.08q-23.86,0-42.29-10.46a75.25,75.25,0,0,1-28.89-29q-10.46-18.57-10.46-42.44,0-24.17,9.88-42.59a74.51,74.51,0,0,1,27.26-29q17.39-10.62,40.08-10.62,22.39,0,39,10.17a68.76,68.76,0,0,1,25.79,28.15q9.13,18,9.14,41a9.88,9.88,0,0,1-3,7.51,10.65,10.65,0,0,1-7.66,2.8H1314.53V526.65h127.62l-12.68,9.14q.3-17.09-6.19-30.65a50.5,50.5,0,0,0-18.42-21.23q-11.92-7.65-28.44-7.66-16.8,0-29.47,8a53.09,53.09,0,0,0-19.6,22q-6.93,14-6.93,32t7.81,31.83a57.68,57.68,0,0,0,21.37,21.81q13.56,8,31.24,8a65.51,65.51,0,0,0,21.37-3.69q10.76-3.67,17.24-9.28a12,12,0,0,1,7.37-2.8,10.33,10.33,0,0,1,7.07,2.21c2.56,2.36,3.88,4.91,4,7.66a8.47,8.47,0,0,1-3.39,7.07q-9.72,8.26-24.75,13.71A84.47,84.47,0,0,1,1380.84,620.08Z" transform="translate(0 -388.42)"/><path class="cls-3" d="M1558.86,620.38q-20.92,0-37.43-8.7a63.72,63.72,0,0,1-26.08-25.49q-9.58-16.8-9.58-41V468.59a11.06,11.06,0,0,1,11.2-11.2,11.19,11.19,0,0,1,8.25,3.24,10.83,10.83,0,0,1,3.24,8v76.63q0,18.28,6.93,30.06A44.17,44.17,0,0,0,1534.25,593a60.11,60.11,0,0,0,27,5.89,59.31,59.31,0,0,0,26.08-5.6,46.47,46.47,0,0,0,18.42-15.32,37.76,37.76,0,0,0,6.78-22.11h16.21A65.74,65.74,0,0,1,1593.64,612,72.28,72.28,0,0,1,1558.86,620.38Zm64.84-1.77a10.92,10.92,0,0,1-8.1-3.1,11.32,11.32,0,0,1-3.1-8.4V468.59a10.62,10.62,0,0,1,11.2-11.2,11.51,11.51,0,0,1,8.26,3.09,10.72,10.72,0,0,1,3.24,8.11V607.11a11.06,11.06,0,0,1-3.24,8.4A11.48,11.48,0,0,1,1623.7,618.61Z" transform="translate(0 -388.42)"/><path class="cls-3" d="M1699.74,618.61a11.32,11.32,0,0,1-8.4-3.1,11,11,0,0,1-3.09-8.1V468.88a11.47,11.47,0,0,1,3.09-8.25,11.06,11.06,0,0,1,8.4-3.24,10.72,10.72,0,0,1,8.11,3.24,11.47,11.47,0,0,1,3.09,8.25V607.41a10.62,10.62,0,0,1-11.2,11.2Zm103.45,0a11.44,11.44,0,0,1-8.25-3.1,10.68,10.68,0,0,1-3.24-8.1V522.53q0-20.92-10.91-33.16t-28-12.23q-18.27,0-30.06,11.93t-11.79,31.1h-16.21q.58-18.87,8.4-33.46a58.47,58.47,0,0,1,21.37-22.84,57.75,57.75,0,0,1,30.65-8.25q17.38,0,30.8,8.25a56.14,56.14,0,0,1,20.93,23.29q7.51,15,7.51,35.37v84.88a10.62,10.62,0,0,1-11.2,11.2Zm102.86,0a11.44,11.44,0,0,1-8.25-3.1,10.68,10.68,0,0,1-3.24-8.1V522.53q0-20.92-10.91-33.16t-28-12.23q-18.27,0-29.91,12.23t-11.35,32.57h-20.33q.29-19.76,8.54-34.78a58.89,58.89,0,0,1,22.7-23.29q14.43-8.25,32.71-8.25,17.38,0,30.8,8.25a56.14,56.14,0,0,1,20.93,23.29q7.52,15,7.51,35.37v84.88a10.62,10.62,0,0,1-11.2,11.2Z" transform="translate(0 -388.42)"/></g><path class="cls-4" d="M267,529.93v50.89L307.48,600h0v-50.9Z" transform="translate(0 -388.42)"/><path class="cls-5" d="M348,580.82,307.44,600v-50.9L348,529.93Z" transform="translate(0 -388.42)"/><path class="cls-5" d="M267,529.93,226.44,600,267,580.82Z" transform="translate(0 -388.42)"/><path class="cls-6" d="M267,625l40.52-25L267,580.82Z" transform="translate(0 -388.42)"/><path class="cls-4" d="M226.44,600,267,625V580.82Z" transform="translate(0 -388.42)"/><path class="cls-4" d="M348,529.93v50.89L388.51,600Z" transform="translate(0 -388.42)"/><path class="cls-6" d="M348,625l40.51-25L348,580.82Z" transform="translate(0 -388.42)"/><path class="cls-4" d="M307.48,600,348,625V580.82Z" transform="translate(0 -388.42)"/><path class="cls-6" d="M307.48,505l-40.52,25,40.52,19.2Z" transform="translate(0 -388.42)"/><path class="cls-4" d="M348,529.93l-40.51-25v44.17Z" transform="translate(0 -388.42)"/><path class="cls-4" d="M222.34,460.1v40.7l32.41,15.36Z" transform="translate(0 -388.42)"/><path class="cls-5" d="M222.34,460.1l-32.4,56.06,32.4-15.36Z" transform="translate(0 -388.42)"/><path class="cls-6" d="M222.34,536.13l32.41-20L222.34,500.8Z" transform="translate(0 -388.42)"/><path class="cls-4" d="M189.94,516.16l32.4,20V500.8Z" transform="translate(0 -388.42)"/><path class="cls-4" d="M222.34,542.57v27.65l32.43-47.61Z" transform="translate(0 -388.42)"/><path class="cls-5" d="M222.34,570.22V542.57l-32.4-20Z" transform="translate(0 -388.42)"/><path class="cls-4" d="M392.53,460.1v40.7l32.4,15.36Z" transform="translate(0 -388.42)"/><path class="cls-5" d="M392.53,460.1l-32.41,56.06,32.41-15.36Z" transform="translate(0 -388.42)"/><path class="cls-6" d="M392.53,536.13l32.4-20-32.4-15.36Z" transform="translate(0 -388.42)"/><path class="cls-4" d="M360.12,516.16l32.41,20V500.8Z" transform="translate(0 -388.42)"/><path class="cls-4" d="M392.53,542.57v27.65L425,522.61Z" transform="translate(0 -388.42)"/><path class="cls-5" d="M392.53,570.22V542.57l-32.41-20Z" transform="translate(0 -388.42)"/><path class="cls-4" d="M266.92,388.42v40.71l32.4,15.35Z" transform="translate(0 -388.42)"/><path class="cls-5" d="M266.92,388.42l-32.41,56.06,32.41-15.35Z" transform="translate(0 -388.42)"/><path class="cls-6" d="M266.92,464.45l32.4-20-32.4-15.35Z" transform="translate(0 -388.42)"/><path class="cls-4" d="M234.51,444.48l32.41,20V429.13Z" transform="translate(0 -388.42)"/><path class="cls-4" d="M266.92,470.89v27.65l32.42-47.61Z" transform="translate(0 -388.42)"/><path class="cls-5" d="M266.92,498.54V470.89l-32.41-20Z" transform="translate(0 -388.42)"/><path class="cls-4" d="M348,388.42v40.71l32.41,15.35Z" transform="translate(0 -388.42)"/><path class="cls-5" d="M348,388.42l-32.4,56.06L348,429.13Z" transform="translate(0 -388.42)"/><path class="cls-6" d="M348,464.45l32.41-20L348,429.13Z" transform="translate(0 -388.42)"/><path class="cls-4" d="M315.55,444.48l32.4,20V429.13Z" transform="translate(0 -388.42)"/><path class="cls-4" d="M348,470.89v27.65l32.43-47.61Z" transform="translate(0 -388.42)"/><path class="cls-5" d="M348,498.54V470.89l-32.4-20Z" transform="translate(0 -388.42)"/><path class="cls-4" d="M267,529.93v50.89L307.48,600h0v-50.9Z" transform="translate(0 -388.42)"/><path class="cls-5" d="M348,580.82,307.44,600v-50.9L348,529.93Z" transform="translate(0 -388.42)"/><path class="cls-5" d="M267,529.93,226.44,600,267,580.82Z" transform="translate(0 -388.42)"/><path class="cls-6" d="M267,625l40.52-25L267,580.82Z" transform="translate(0 -388.42)"/><path class="cls-4" d="M226.44,600,267,625V580.82Z" transform="translate(0 -388.42)"/><path class="cls-4" d="M348,529.93v50.89L388.51,600Z" transform="translate(0 -388.42)"/><path class="cls-6" d="M348,625l40.51-25L348,580.82Z" transform="translate(0 -388.42)"/><path class="cls-4" d="M307.48,600,348,625V580.82Z" transform="translate(0 -388.42)"/><path class="cls-6" d="M307.48,505l-40.52,25,40.52,19.2Z" transform="translate(0 -388.42)"/><path class="cls-4" d="M348,529.93l-40.51-25v44.17Z" transform="translate(0 -388.42)"/><path class="cls-4" d="M222.34,460.1v40.7l32.41,15.36Z" transform="translate(0 -388.42)"/><path class="cls-5" d="M222.34,460.1l-32.4,56.06,32.4-15.36Z" transform="translate(0 -388.42)"/><path class="cls-6" d="M222.34,536.13l32.41-20L222.34,500.8Z" transform="translate(0 -388.42)"/><path class="cls-4" d="M189.94,516.16l32.4,20V500.8Z" transform="translate(0 -388.42)"/><path class="cls-4" d="M222.34,542.57v27.65l32.43-47.61Z" transform="translate(0 -388.42)"/><path class="cls-5" d="M222.34,570.22V542.57l-32.4-20Z" transform="translate(0 -388.42)"/><path class="cls-4" d="M392.53,460.1v40.7l32.4,15.36Z" transform="translate(0 -388.42)"/><path class="cls-5" d="M392.53,460.1l-32.41,56.06,32.41-15.36Z" transform="translate(0 -388.42)"/><path class="cls-6" d="M392.53,536.13l32.4-20-32.4-15.36Z" transform="translate(0 -388.42)"/><path class="cls-4" d="M360.12,516.16l32.41,20V500.8Z" transform="translate(0 -388.42)"/><path class="cls-4" d="M392.53,542.57v27.65L425,522.61Z" transform="translate(0 -388.42)"/><path class="cls-5" d="M392.53,570.22V542.57l-32.41-20Z" transform="translate(0 -388.42)"/><path class="cls-4" d="M266.92,388.42v40.71l32.4,15.35Z" transform="translate(0 -388.42)"/><path class="cls-5" d="M266.92,388.42l-32.41,56.06,32.41-15.35Z" transform="translate(0 -388.42)"/><path class="cls-6" d="M266.92,464.45l32.4-20-32.4-15.35Z" transform="translate(0 -388.42)"/><path class="cls-4" d="M234.51,444.48l32.41,20V429.13Z" transform="translate(0 -388.42)"/><path class="cls-4" d="M266.92,470.89v27.65l32.42-47.61Z" transform="translate(0 -388.42)"/><path class="cls-5" d="M266.92,498.54V470.89l-32.41-20Z" transform="translate(0 -388.42)"/><path class="cls-4" d="M348,388.42v40.71l32.41,15.35Z" transform="translate(0 -388.42)"/><path class="cls-5" d="M348,388.42l-32.4,56.06L348,429.13Z" transform="translate(0 -388.42)"/><path class="cls-6" d="M348,464.45l32.41-20L348,429.13Z" transform="translate(0 -388.42)"/><path class="cls-4" d="M315.55,444.48l32.4,20V429.13Z" transform="translate(0 -388.42)"/><path class="cls-4" d="M348,470.89v27.65l32.43-47.61Z" transform="translate(0 -388.42)"/><path class="cls-5" d="M348,498.54V470.89l-32.4-20Z" transform="translate(0 -388.42)"/></svg>